<?xml version="1.0" encoding="UTF-8"?>
<svg id="Layer_2" data-name="Layer 2" xmlns="http://www.w3.org/2000/svg" viewBox="0 0 186.88 51.35">
  <defs>
    <style>
      .cls-1 {
        letter-spacing: .22em;
      }

      .cls-2 {
        letter-spacing: .21em;
      }

      .cls-3, .cls-4, .cls-5, .cls-6 {
        font-family: Exotica, Exotica;
      }

      .cls-7 {
        letter-spacing: .09em;
      }

      .cls-8 {
        fill: #000;
        font-size: 10px;
      }

      .cls-9 {
        letter-spacing: .24em;
      }

      .cls-10 {
        letter-spacing: .33em;
      }

      .cls-4 {
        letter-spacing: .34em;
      }

      .cls-11 {
        letter-spacing: .33em;
      }

      .cls-5 {
        letter-spacing: .41em;
      }

      .cls-12 {
        letter-spacing: .33em;
      }

      .cls-6 {
        letter-spacing: .41em;
      }

      .cls-13 {
        letter-spacing: .24em;
      }

      .cls-14 {
        font-family: HelveticaNeue, 'Helvetica Neue';
        letter-spacing: .25em;
      }

      .cls-15 {
        fill: #0a1d37;
        stroke-width: 0px;
      }
    </style>
  </defs>
  <g id="Layer_2-2" data-name="Layer 2">
    <path class="cls-15" d="M57.39,22.93c.89-.44,1.31-1.06,1.31-2.5V3.24c0-1.42-.42-2.06-1.31-2.5h10.12c5.39,0,7.77,2.53,7.77,5.17,0,2.33-1.81,4.73-4.98,5.66,3.7.67,5.67,3.33,5.67,5.91,0,2.77-2.28,5.45-7.06,5.45h-11.52ZM69.8,6.34c0-2.52-1.8-5.03-5.36-5.03h-.2v10.08h.19c3.58,0,5.38-2.52,5.38-5.05ZM65.75,22.24c3.03-.23,4.53-2.67,4.53-5.09s-1.5-4.88-4.53-5.09c-.52-.05-1.09-.08-1.52-.09v10.38l1.52-.09ZM86.95.74c5.22,0,7.81,2.52,7.81,5.19,0,2.5-2.27,5.12-6.7,5.92,3.3.52,5.94,2,5.94,5.95v2.2c0,1.06.06,2.02,1.31,2.5-1.14.28-2.11.42-2.94.42-2.78,0-3.89-1.5-3.89-3.22v-1.89c0-4.78-3.25-5.59-4.22-5.73-.2-.02-.41-.02-.61-.03v8.38c0,1.42.41,2.05,1.31,2.5h-8.16c.89-.45,1.31-1.08,1.31-2.5V3.24c0-1.44-.42-2.06-1.31-2.5h10.14ZM83.65,1.29v10.39c3.75-.89,5.53-3.45,5.53-5.8s-1.83-4.58-5.28-4.59h-.25ZM96.13,18.45c0-4.47,5.31-12.09,7.61-15.8-.38-.94-.86-1.73-1.52-1.91h6.88l4.78,17.47c.36,1.33,1.06,4.11,2.06,4.53-.58.12-1.27.2-1.98.2-2.27,0-4.84-.73-5.36-2.91l-.48-1.77c-.77,3.09-3.91,4.72-6.77,4.72s-5.22-1.47-5.22-4.55ZM107.91,17.51l-3.47-12.64c-.11-.38-.22-.81-.36-1.25-.98,2.77-2.12,7.55-2.12,11.28,0,3.02.75,5.34,2.95,5.34h.09c1.14-.02,2.25-.95,2.91-2.73ZM113.75,4.87c-.55-1.52-1.39-3.81-2.56-4.12h7.61c-.19.39-.3.67-.3.97,0,.22.05.44.16.73,1.95,5.41,2.41,6.72,4.42,12.3l2.91-5.59c.45-.88.69-1.98.69-3.09,0-2.3-.95-4.64-2.89-5.3l6.12-.02c.05.27.06.55.06.84,0,2.47-1.59,5.34-2.89,7.83l-6.81,13.5-6.52-18.05ZM132.35,15.85c.02-2.31,1.2-4.48,3.73-5.78-2.19-.33-3.06-1.97-3.06-3.97v-2.86c0-1.42-.41-2.06-1.31-2.5h16.83v7.11c-2.27-3.86-5.36-6.58-9.98-6.58v5.09c0,2.05,1.03,2.77,2.28,2.77,1.44,0,3.17-.95,3.94-1.84l-.03,4.17c-.72-1.19-1.95-1.89-3.16-1.89-2.56.09-3.67,2.88-3.67,6.23,0,.75.06,1.52.19,2.25.5,2.98,1.69,4.36,2.92,4.36,1.33,0,2.69-1.64,3.22-4.62.06-.34.09-.69.09-1.02,0-1.09-.36-2.03-1.27-2.47h6.92v.12c0,5.91-4.41,8.5-8.81,8.5s-8.83-2.61-8.83-7.08ZM161.01.74c5.22,0,7.81,2.52,7.81,5.19,0,2.5-2.27,5.12-6.7,5.92,3.3.52,5.94,2,5.94,5.95v2.2c0,1.06.06,2.02,1.31,2.5-1.14.28-2.11.42-2.94.42-2.78,0-3.89-1.5-3.89-3.22v-1.89c0-4.78-3.25-5.59-4.22-5.73-.2-.02-.41-.02-.61-.03v8.38c0,1.42.41,2.05,1.31,2.5h-8.16c.89-.45,1.31-1.08,1.31-2.5V3.24c0-1.44-.42-2.06-1.31-2.5h10.14ZM157.72,1.29v10.39c3.75-.89,5.53-3.45,5.53-5.8s-1.83-4.58-5.28-4.59h-.25ZM173.55,22.93c.89-.44,1.31-1.06,1.31-2.5v-6.72l-3.8-8.81c-.58-1.36-1.66-3.91-2.59-4.16h7.59c-.16.33-.27.69-.27,1.05,0,.22.03.44.12.66l4.23,10.19c.58-1,1.19-2.05,2.05-3.48.61-1.03.92-2.36.92-3.67,0-2.09-.81-4.11-2.53-4.72l6.12-.02c.02.16.02.3.02.45,0,2.56-1.92,5.61-3.45,8.22l-2.89,5.02v6c0,1.44.41,2.06,1.3,2.5h-8.14Z"/>
    <path class="cls-15" d="M17.2,6.8c-.52-.21-4.18-1.62-8.21-.92,1.78-1.5,3.77-2.75,5.93-3.71.17.21.34.42.5.65,1.06,1.5,1.55,2.97,1.79,3.97ZM18.67,1.46c0-.21-.02-.42-.04-.6-.44.12-.88.25-1.32.39.52.39.95.77,1.29,1.11.04-.26.07-.56.07-.9ZM26.61,16.98c-.22-.26-.37-.55-.33-.84.01.31.15.59.33.84ZM24.1,15.47c-.61.3-1.2.46-1.71.53.79-.24,1.38-.43,1.71-.53ZM26.65,17.02c.46.59,1.2.97,1.25,1.04-.02-.08-.78-.5-1.25-1.04ZM24.1,15.47c-.34.11-.92.29-1.71.53.52-.08,1.11-.23,1.71-.53ZM26.28,16.13c-.04.29.11.58.33.84-.19-.25-.32-.53-.33-.84ZM19.45,39.39c-1.68-3.57-3.12-4.23-4.59-6.95-.88-1.62-1.85-4.11-1.96-7.74-.92,1.52-2.43,4.48-2.77,8.51-.41,4.82,1.08,8.51,1.87,10.15-.85-1.01-5.65-6.96-4.66-15.48.89-7.7,5.9-12.21,7.06-13.2-.84-.15-1.9-.24-3.11-.12-2.79.26-4.83,1.47-5.88,2.22.2-.73,1.24-4.21,4.65-5.98,1.49-.77,2.91-.95,3.83-.97-1.06-.47-2.69-1.02-4.73-1.05-1.29-.02-2.46.18-3.5.48C2.12,13.58,0,19.11,0,25.14c0,11.17,7.28,20.63,17.36,23.91,1.1-.61,2.84-1.87,3.38-3.96.49-1.88-.25-3.49-1.29-5.71ZM27.9,18.07c-.05-.07-.79-.46-1.25-1.04-.02-.02-.03-.03-.04-.05-.22-.26-.37-.55-.33-.84-.02-.37.14-.67.27-.86-.21-.06-.53-.13-.92-.13-.51,0-.86.12-1.53.33-.61.3-1.2.46-1.71.53.65.06,1.6.21,2.67.62,1.54.59,2.8,1.52,2.85,1.45h0s0,0,0,0ZM24.1,15.47c-.34.11-.92.29-1.71.53.52-.08,1.11-.23,1.71-.53ZM26.61,16.98c-.19-.25-.32-.53-.33-.84-.04.29.11.58.33.84ZM26.65,17.02c.46.59,1.2.97,1.25,1.04-.02-.08-.78-.5-1.25-1.04ZM50.28,25.14c0,13.88-11.26,25.14-25.14,25.14-2.46,0-4.84-.35-7.08-1.01,1.85-.3,3.93-1.01,5.18-2.72,4.31-5.88-5.38-18-1.6-21.77.76-.76,2.33-1.45,6.04-.52-.1.12-2.41,2.93-1.4,5.24,1.11,2.54,5.42,2.6,8.01,1.5,1.69-.72,3.92-2.45,3.77-4.37-.09-1.2-1.08-2.14-1.39-2.44-1.41-1.34-3.35-1.58-3.32-2.37,0-.1.04-.18.07-.24.55.2,1.68.53,3.06.28.21-.04,2.1-.4,2.12-.98.02-.65-2.37-.86-5.42-2.3-1.68-.79-2.96-1.67-3.79-2.3.32-1.3,0-1.95-.21-2.25-.34-.47-.79-.58-1.97-1.13-.87-.41-1.54-.78-1.96-1.02.13-1.07.28-3.64-1.08-6.42-1.26-2.57-3.21-4.07-4.54-4.86,1.77-.4,3.62-.61,5.51-.61,13.88,0,25.14,11.26,25.14,25.14ZM35.95,31.31c-.57.33-1.45.76-2.6,1.01-3.18.7-5.56-.65-6.28.4-.39.57-.08,1.41.03,1.7.65,1.77,2.79,1.72,3.19,3.31.22.88-.29,1.45,0,1.65.47.34,2.19-1.12,3.3-2.52.79-1,1.9-2.78,2.34-5.56Z"/>
    <text class="cls-8" transform="translate(57.39 36.48)"><tspan class="cls-4" x="0" y="0">B</tspan><tspan class="cls-5" x="8.98" y="0">ANQUE</tspan><tspan class="cls-6" x="60.77" y="0">T </tspan><tspan class="cls-5" x="77.69" y="0">HAL</tspan><tspan class="cls-6" x="107.31" y="0">L </tspan><tspan class="cls-14" x="122.46" y="0">&amp;</tspan><tspan class="cls-3"><tspan class="cls-2" x="0" y="12">A</tspan><tspan class="cls-13" x="9.08" y="12">C</tspan><tspan class="cls-9" x="18.51" y="12">C</tspan><tspan class="cls-12" x="27.96" y="12">OMMO</tspan><tspan class="cls-1" x="70.97" y="12">D</tspan><tspan class="cls-7" x="79.64" y="12">A</tspan><tspan class="cls-11" x="87.44" y="12">TION</tspan><tspan class="cls-10" x="122.22" y="12">S</tspan></tspan></text>
  </g>
</svg>