<?xml version="1.0" encoding="UTF-8"?>
<svg id="Layer_2" data-name="Layer 2" xmlns="http://www.w3.org/2000/svg" viewBox="0 0 83.14 83.14">
  <defs>
    <style>
      .cls-1 {
        fill: #0a1d37;
        stroke-width: 0px;
      }
    </style>
  </defs>
  <g id="Layer_2-2" data-name="Layer 2">
    <path class="cls-1" d="M28.43,11.24c-.86-.34-6.92-2.68-13.58-1.52,2.95-2.47,6.24-4.55,9.8-6.14.28.34.56.7.82,1.08,1.75,2.49,2.56,4.92,2.95,6.57ZM30.86,2.41c0-.35-.03-.69-.07-.99-.73.2-1.46.41-2.18.65.85.64,1.57,1.27,2.14,1.84.07-.43.12-.93.11-1.49ZM44,28.07c-.37-.44-.61-.91-.55-1.39.02.51.24.98.55,1.39ZM39.84,25.57c-1,.5-1.98.76-2.84.88,1.31-.4,2.27-.71,2.84-.88ZM44.07,28.15c.77.97,1.99,1.61,2.07,1.73-.04-.13-1.28-.83-2.07-1.73ZM39.84,25.57c-.56.18-1.52.48-2.84.88.86-.13,1.84-.39,2.84-.88ZM43.45,26.68c-.06.48.19.95.55,1.39-.31-.41-.53-.88-.55-1.39ZM32.16,65.13c-2.78-5.9-5.16-7-7.6-11.49-1.46-2.68-3.06-6.8-3.25-12.8-1.52,2.52-4.02,7.42-4.58,14.08-.67,7.96,1.79,14.07,3.09,16.79-1.4-1.68-9.34-11.52-7.71-25.6,1.47-12.74,9.76-20.19,11.68-21.83-1.39-.24-3.14-.39-5.13-.2-4.62.44-7.98,2.44-9.72,3.66.33-1.21,2.05-6.96,7.69-9.88,2.47-1.28,4.82-1.57,6.33-1.61-1.75-.78-4.45-1.69-7.82-1.74-2.13-.03-4.07.29-5.78.79C3.51,22.45,0,31.6,0,41.57c0,18.47,12.04,34.12,28.7,39.54,1.82-1.02,4.7-3.1,5.58-6.54.8-3.1-.41-5.77-2.13-9.44ZM46.13,29.87c-.08-.12-1.3-.75-2.07-1.73-.03-.03-.04-.05-.06-.08-.37-.44-.61-.91-.55-1.39-.03-.61.24-1.11.45-1.42-.35-.1-.88-.22-1.52-.22-.84,0-1.43.19-2.53.54-1,.5-1.98.76-2.84.88,1.08.1,2.65.35,4.42,1.03,2.54.98,4.63,2.51,4.71,2.39h0s0,0,0-.01ZM39.84,25.57c-.56.18-1.52.48-2.84.88.86-.13,1.84-.39,2.84-.88ZM44,28.07c-.31-.41-.53-.88-.55-1.39-.06.48.19.95.55,1.39ZM44.07,28.15c.77.97,1.99,1.61,2.07,1.73-.04-.13-1.28-.83-2.07-1.73ZM83.14,41.57c0,22.96-18.61,41.57-41.57,41.57-4.07,0-8-.58-11.71-1.67,3.06-.5,6.5-1.67,8.57-4.5,7.12-9.73-8.9-29.76-2.65-35.99,1.25-1.25,3.85-2.4,9.99-.86-.17.2-3.98,4.85-2.32,8.67,1.84,4.21,8.96,4.3,13.25,2.48,2.79-1.18,6.47-4.06,6.24-7.23-.14-1.98-1.78-3.54-2.3-4.04-2.32-2.21-5.53-2.61-5.48-3.91,0-.17.07-.3.11-.39.91.34,2.78.88,5.05.46.35-.06,3.48-.66,3.5-1.62.03-1.08-3.91-1.42-8.96-3.8-2.78-1.31-4.89-2.76-6.26-3.8.53-2.15,0-3.22-.35-3.72-.56-.78-1.31-.96-3.26-1.88-1.44-.67-2.55-1.3-3.24-1.69.21-1.77.47-6.03-1.78-10.62-2.09-4.26-5.31-6.73-7.51-8.03,2.93-.66,5.98-1,9.11-1,22.96,0,41.57,18.61,41.57,41.57ZM59.44,51.77c-.94.54-2.4,1.26-4.29,1.68-5.25,1.16-9.2-1.08-10.38.66-.64.94-.13,2.33.06,2.82,1.08,2.92,4.61,2.84,5.27,5.47.37,1.45-.48,2.4,0,2.73.78.56,3.63-1.84,5.46-4.17,1.31-1.66,3.14-4.59,3.88-9.19Z"/>
  </g>
</svg>